<svg width="300" height="300" fill="none" xmlns="http://www.w3.org/2000/svg"><path d="M265.625 150A115.624 115.624 0 0 1 150 265.625v18.75c74.212 0 134.375-60.163 134.375-134.375h-18.75ZM150 265.625A115.624 115.624 0 0 1 34.375 150h-18.75c0 74.212 60.162 134.375 134.375 134.375v-18.75ZM34.375 150A115.624 115.624 0 0 1 150 34.375v-18.75C75.787 15.625 15.625 75.787 15.625 150h18.75Zm159.375 28.125a71.876 71.876 0 0 1-71.875-71.875h-18.75a90.629 90.629 0 0 0 26.543 64.082 90.629 90.629 0 0 0 64.082 26.543v-18.75Zm61.562-34.763a71.816 71.816 0 0 1-61.562 34.763v18.75a90.59 90.59 0 0 0 77.625-43.813l-16.063-9.7ZM121.875 106.25a71.843 71.843 0 0 1 34.763-61.563l-9.7-16.05a90.57 90.57 0 0 0-43.813 77.613h18.75ZM150 34.375a4.8 4.8 0 0 1-3.35-1.475 3.564 3.564 0 0 1-1.025-1.938c-.05-.387-.025-1.512 1.313-2.325l9.7 16.05c6.287-3.8 8.312-10.762 7.575-16.237-.775-5.688-5.25-12.825-14.213-12.825v18.75Zm121.375 118.687c-.825 1.338-1.95 1.363-2.337 1.313a3.564 3.564 0 0 1-1.938-1.025 4.8 4.8 0 0 1-1.475-3.35h18.75c0-8.963-7.137-13.438-12.825-14.213-5.475-.737-12.438 1.288-16.238 7.575l16.063 9.7Z" fill="#DACFC7"/></svg>